<svg xmlns="http://www.w3.org/2000/svg" width="300" height="300" viewBox="0 0 300 300">
  <circle cx="140.5" cy="158.7" r="0.5" fill="#0ee279"></circle>
  <circle cx="151.6" cy="131.9" r="0.6" fill="#499ef3"></circle>
  <circle cx="163.6" cy="167.7" r="0.5" fill="#0ee37a"></circle>
  <circle cx="124.7" cy="145.5" r="0.6" fill="#499ef3"></circle>
  <circle cx="174.3" cy="134.6" r="0.6" fill="#0fe47c"></circle>
  <circle cx="141.8" cy="180.4" r="0.6" fill="#0fe57c"></circle>
  <circle cx="134.3" cy="119.8" r="0.7" fill="#499ef3"></circle>
  <circle cx="184.2" cy="162.5" r="0.7" fill="#499ef3"></circle>
  <circle cx="114.3" cy="164.7" r="0.6" fill="#0fe77e"></circle>
  <circle cx="167.3" cy="113.1" r="0.6" fill="#0fe77f"></circle>
  <circle cx="162.8" cy="190.7" r="0.7" fill="#0fe880"></circle>
  <circle cx="111.4" cy="127.6" r="0.8" fill="#499ef3"></circle>
  <circle cx="195.3" cy="140.0" r="0.7" fill="#0fe982"></circle>
  <circle cx="122.3" cy="189.4" r="0.7" fill="#0fea82"></circle>
  <circle cx="143.6" cy="100.6" r="0.7" fill="#0fea83"></circle>
  <circle cx="189.4" cy="183.2" r="0.7" fill="#0feb84"></circle>
  <circle cx="97.0" cy="152.2" r="0.7" fill="#0fec85"></circle>
  <circle cx="188.7" cy="111.5" r="0.8" fill="#0fec85"></circle>
  <circle cx="147.4" cy="206.0" r="0.9" fill="#499ef3"></circle>
  <circle cx="113.1" cy="105.8" r="0.8" fill="#0fed87"></circle>
  <circle cx="208.5" cy="157.9" r="0.8" fill="#0fee88"></circle>
  <circle cx="100.4" cy="184.5" r="0.8" fill="#0fef88"></circle>
  <circle cx="163.5" cy="89.8" r="0.8" fill="#0fef89"></circle>
  <circle cx="181.4" cy="204.7" r="0.9" fill="#499ef3"></circle>
  <circle cx="88.7" cy="130.4" r="1.0" fill="#499ef3"></circle>
  <circle cx="209.6" cy="122.5" r="0.9" fill="#10f08b"></circle>
  <circle cx="124.2" cy="211.7" r="1.0" fill="#499ef3"></circle>
  <circle cx="126.9" cy="85.9" r="1.0" fill="#499ef3"></circle>
  <circle cx="211.4" cy="182.2" r="0.9" fill="#12f08e"></circle>
  <circle cx="81.8" cy="168.0" r="0.9" fill="#13f08e"></circle>
  <circle cx="188.8" cy="89.7" r="0.9" fill="#13f08f"></circle>
  <circle cx="162.3" cy="221.8" r="1.1" fill="#499ef3"></circle>
  <circle cx="91.5" cy="104.7" r="1.0" fill="#15f090"></circle>
  <circle cx="224.8" cy="143.8" r="1.1" fill="#499ef3"></circle>
  <circle cx="98.3" cy="205.9" r="1.0" fill="#16f092"></circle>
  <circle cx="150.4" cy="72.8" r="1.0" fill="#16f093"></circle>
  <circle cx="202.6" cy="208.0" r="1.0" fill="#17f093"></circle>
  <circle cx="71.0" cy="142.7" r="1.0" fill="#18f094"></circle>
  <circle cx="214.0" cy="101.4" r="1.1" fill="#18f095"></circle>
  <circle cx="135.4" cy="230.1" r="1.1" fill="#19f095"></circle>
  <circle cx="106.1" cy="80.2" r="1.1" fill="#19f096"></circle>
  <circle cx="230.5" cy="172.0" r="1.1" fill="#1af097"></circle>
  <circle cx="74.9" cy="188.5" r="1.2" fill="#499ef3"></circle>
  <circle cx="179.7" cy="69.9" r="1.1" fill="#1bf098"></circle>
  <circle cx="182.6" cy="230.0" r="1.1" fill="#1cf199"></circle>
  <circle cx="71.1" cy="112.6" r="1.3" fill="#499ef3"></circle>
  <circle cx="234.3" cy="124.0" r="1.2" fill="#1df19a"></circle>
  <circle cx="104.9" cy="226.9" r="1.3" fill="#499ef3"></circle>
  <circle cx="131.1" cy="61.9" r="1.3" fill="#499ef3"></circle>
  <circle cx="224.2" cy="202.7" r="1.4" fill="#499ef3"></circle>
  <circle cx="58.8" cy="161.4" r="1.4" fill="#499ef3"></circle>
  <circle cx="210.2" cy="79.3" r="1.2" fill="#20f19e"></circle>
  <circle cx="153.4" cy="243.6" r="1.3" fill="#21f19e"></circle>
  <circle cx="83.6" cy="82.6" r="1.3" fill="#21f19f"></circle>
  <circle cx="245.3" cy="154.9" r="1.3" fill="#22f1a0"></circle>
  <circle cx="75.7" cy="211.4" r="1.3" fill="#22f1a0"></circle>
  <circle cx="163.4" cy="53.8" r="1.5" fill="#499ef3"></circle>
  <circle cx="205.6" cy="230.7" r="1.3" fill="#24f1a1"></circle>
  <circle cx="53.7" cy="127.8" r="1.5" fill="#499ef3"></circle>
  <circle cx="236.7" cy="100.9" r="1.5" fill="#499ef3"></circle>
  <circle cx="119.0" cy="245.6" r="1.5" fill="#499ef3"></circle>
  <circle cx="107.9" cy="57.8" r="1.4" fill="#26f1a4"></circle>
  <circle cx="244.1" cy="189.9" r="1.6" fill="#499ef3"></circle>
  <circle cx="52.9" cy="184.4" r="1.6" fill="#499ef3"></circle>
  <circle cx="198.7" cy="58.4" r="1.6" fill="#499ef3"></circle>
  <circle cx="176.2" cy="251.2" r="1.4" fill="#28f1a7"></circle>
  <circle cx="61.7" cy="92.6" r="1.6" fill="#499ef3"></circle>
  <circle cx="254.7" cy="132.5" r="1.5" fill="#2af1a8"></circle>
  <circle cx="84.1" cy="234.2" r="1.5" fill="#2af1a9"></circle>
  <circle cx="141.6" cy="42.6" r="1.5" fill="#2bf1a9"></circle>
  <circle cx="229.3" cy="224.0" r="1.5" fill="#2bf1aa"></circle>
  <circle cx="40.8" cy="148.9" r="1.7" fill="#499ef3"></circle>
  <circle cx="231.8" cy="76.5" r="1.7" fill="#499ef3"></circle>
  <circle cx="139.2" cy="260.2" r="1.7" fill="#499ef3"></circle>
  <circle cx="83.0" cy="60.9" r="1.6" fill="#2ef2ac"></circle>
  <circle cx="260.3" cy="170.6" r="1.8" fill="#499ef3"></circle>
  <circle cx="54.1" cy="209.7" r="1.6" fill="#2ff2ae"></circle>
  <circle cx="180.6" cy="40.5" r="1.8" fill="#499ef3"></circle>
  <circle cx="201.7" cy="252.0" r="1.8" fill="#499ef3"></circle>
  <circle cx="42.3" cy="109.5" r="1.6" fill="#31f2af"></circle>
  <circle cx="257.5" cy="106.8" r="1.6" fill="#31f2b0"></circle>
  <circle cx="99.6" cy="255.1" r="1.9" fill="#499ef3"></circle>
  <circle cx="116.0" cy="37.8" r="1.7" fill="#33f2b1"></circle>
  <circle cx="251.5" cy="210.1" r="1.9" fill="#499ef3"></circle>
  <circle cx="33.9" cy="174.3" r="1.7" fill="#34f2b2"></circle>
  <circle cx="219.6" cy="53.0" r="1.7" fill="#34f2b3"></circle>
  <circle cx="164.3" cy="269.2" r="1.7" fill="#35f2b4"></circle>
  <circle cx="58.4" cy="71.3" r="1.7" fill="#36f2b4"></circle>
  <circle cx="271.4" cy="146.2" r="1.8" fill="#36f2b5"></circle>
  <circle cx="62.6" cy="235.3" r="1.8" fill="#37f2b5"></circle>
  <circle cx="156.9" cy="27.4" r="2.0" fill="#499ef3"></circle>
  <circle cx="228.2" cy="245.6" r="1.8" fill="#38f2b6"></circle>
  <circle cx="27.1" cy="132.2" r="1.8" fill="#39f2b7"></circle>
  <circle cx="253.1" cy="79.7" r="1.8" fill="#39f2b8"></circle>
  <circle cx="121.3" cy="272.1" r="1.8" fill="#3af2b8"></circle>
  <circle cx="88.4" cy="40.0" r="1.9" fill="#3af2b9"></circle>
  <circle cx="270.4" cy="189.7" r="2.1" fill="#499ef3"></circle>
  <circle cx="33.8" cy="202.3" r="2.1" fill="#499ef3"></circle>
  <circle cx="200.6" cy="32.3" r="1.9" fill="#3cf3bb"></circle>
  <circle cx="192.4" cy="271.5" r="1.9" fill="#3df3bb"></circle>
  <circle cx="36.1" cy="88.7" r="1.9" fill="#3df3bc"></circle>
  <circle cx="276.0" cy="118.1" r="2.2" fill="#499ef3"></circle>
  <circle cx="78.3" cy="259.2" r="2.2" fill="#499ef3"></circle>
  <circle cx="129.0" cy="20.4" r="2.0" fill="#3ff3bd"></circle>
  <circle cx="253.5" cy="231.8" r="2.0" fill="#40f3be"></circle>
  <circle cx="17.8" cy="159.7" r="2.0" fill="#40f3be"></circle>
  <circle cx="241.4" cy="53.2" r="2.0" fill="#41f3bf"></circle>
  <circle cx="148.0" cy="283.8" r="2.0" fill="#42f3c0"></circle>
  <circle cx="60.7" cy="49.6" r="2.0" fill="#42f3c0"></circle>
  <circle cx="284.3" cy="163.8" r="2.1" fill="#43f3c1"></circle>
  <circle cx="41.2" cy="230.9" r="2.1" fill="#43f3c1"></circle>
  <circle cx="175.7" cy="16.2" r="2.3" fill="#499ef3"></circle>
  <circle cx="221.7" cy="266.5" r="2.4" fill="#499ef3"></circle>
  <circle cx="17.8" cy="112.4" r="2.1" fill="#45f3c3"></circle>
  <circle cx="273.4" cy="88.2" r="2.1" fill="#46f3c3"></circle>
  <circle cx="100.5" cy="279.5" r="2.1" fill="#46f3c4"></circle>
  <circle cx="98.8" cy="20.5" r="2.2" fill="#47f3c4"></circle>
  <circle cx="275.8" cy="211.1" r="2.2" fill="#48f3c5"></circle>
  <circle cx="15.4" cy="190.1" r="2.2" fill="#48f3c5"></circle>
  <circle cx="222.5" cy="29.1" r="2.2" fill="#49f3c6"></circle>
</svg>